<svg width="16" height="18" viewBox="0 0 16 18" fill="none" xmlns="http://www.w3.org/2000/svg">
<path d="M15.4284 9C15.4284 9.62191 14.9166 10.1254 14.2856 10.1254H9.14272V15.1879C9.14272 15.8098 8.63093 16.3125 7.99986 16.3125C7.36879 16.3125 6.857 15.8098 6.857 15.1879V10.1254H1.71415C1.08307 10.1254 0.571289 9.62191 0.571289 9C0.571289 8.37809 1.08307 7.87535 1.71415 7.87535H6.857V2.81285C6.857 2.19094 7.36879 1.6875 7.99986 1.6875C8.63093 1.6875 9.14272 2.19094 9.14272 2.81285V7.87535H14.2856C14.9177 7.875 15.4284 8.37773 15.4284 9Z" fill="#A7D989"/>
<path d="M14.2856 7.87535H9.64272H9.14272H14.2856ZM14.2856 7.87535C14.9177 7.875 15.4284 8.37773 15.4284 9C15.4284 9.62191 14.9166 10.1254 14.2856 10.1254H9.64272L14.2856 7.87535ZM9.14272 9.62535H8.64272V10.1254V15.1879C8.64272 15.5258 8.36265 15.8125 7.99986 15.8125C7.63707 15.8125 7.357 15.5258 7.357 15.1879V10.1254V9.62535H6.857H1.71415C1.35176 9.62535 1.07129 9.33838 1.07129 9C1.07129 8.66203 1.35135 8.37535 1.71415 8.37535H6.857H7.357V7.87535V2.81285C7.357 2.47447 7.63748 2.1875 7.99986 2.1875C8.36224 2.1875 8.64272 2.47447 8.64272 2.81285V7.87535V8.37535H9.14272H14.2856H14.2859C14.649 8.37515 14.9284 8.66122 14.9284 9C14.9284 9.33838 14.648 9.62535 14.2856 9.62535H9.14272Z" stroke="#525252" stroke-opacity="0.6"/>
</svg>
